<svg width="50" height="47" viewBox="0 0 50 47" fill="none" xmlns="http://www.w3.org/2000/svg">
<g clip-path="url(#clip0_29250_8805)">
<path d="M9.51651 9.80434C9.15522 10.8051 8.92947 11.8583 8.85763 12.9322C8.77852 14.0888 8.82762 15.2412 8.90602 16.3989C8.915 16.5327 8.92509 16.6634 8.94035 16.7942C8.96188 17.023 8.9943 17.2505 9.02936 17.4754C9.14273 18.2142 9.30659 18.9382 9.45175 19.6658C9.54605 20.1401 9.70451 20.6098 9.83759 21.0825C10.2346 22.4875 10.7509 23.8503 11.2496 25.219C11.2791 25.2958 11.3092 25.371 11.3383 25.4442C11.4275 25.6539 11.5224 25.8622 11.6146 26.073C11.6292 26.1096 11.6472 26.1509 11.6638 26.1917C12.0197 27.0807 12.4367 27.9447 12.8364 28.8182C13.1987 29.6173 13.5938 30.4073 14.0081 31.1781C14.1787 31.4938 14.3488 31.8111 14.5195 32.1268C14.6266 32.3203 14.7357 32.5181 14.8423 32.7132C15.3982 33.7214 15.9651 34.7231 16.5639 35.7085C16.9491 36.3383 17.3674 36.9487 17.7165 37.6021C18.1553 38.4201 18.7658 39.1277 19.1874 39.9552C19.2946 40.1679 19.4505 40.2503 19.7106 40.1597C20.4694 39.8942 21.242 39.6579 21.9965 39.3804C22.6019 39.1552 23.2273 38.9755 23.824 38.7315C24.2406 38.5582 24.6603 38.386 25.0832 38.2289C27.7099 37.2507 30.3015 36.1919 32.8386 35.0003C33.3718 34.7491 33.8986 34.492 34.4188 34.2239C34.6344 34.1172 34.8474 34.0079 35.0563 33.8954C36.1709 33.3127 37.2611 32.6917 38.3318 32.0289C38.8235 31.7243 39.2715 31.3535 39.7703 31.0585C40.5613 30.5836 41.2731 29.9965 41.9513 29.3869C42.0925 29.2603 42.2321 29.1332 42.3702 29.0055C42.4035 28.9758 42.4326 28.948 42.4623 28.9187C43.2279 28.2066 43.9072 27.392 44.5687 26.5693C45.3898 25.5448 45.8829 24.3567 46.424 23.2521C46.874 21.6307 47.1457 20.0512 46.9988 18.4197C46.9165 17.4989 46.7448 16.5947 46.4212 15.7365C45.9921 14.5983 45.3614 13.5666 44.5222 12.6702C43.8455 11.9438 43.1064 11.2941 42.2464 10.8062C40.9369 10.0637 39.5569 9.51151 38.0516 9.27264C37.1631 9.13287 36.279 9.06775 35.4016 9.18086C34.0889 9.35087 32.861 9.80035 31.6972 10.4522C31.0358 10.8226 30.4834 11.3192 29.8823 11.7583C29.6407 11.9373 29.6448 11.9354 29.5652 11.656C29.4195 11.1318 29.3792 10.5847 29.2122 10.0667C28.7995 8.79177 28.2251 7.5994 27.3954 6.55156C26.5547 5.49103 25.4803 4.72204 24.2707 4.11132C23.1417 3.54187 21.9319 3.26347 20.7046 3.08145C19.1866 2.85367 17.6723 2.9526 16.1851 3.36069C14.5825 3.80018 13.2217 4.63678 12.0462 5.78736C11.9492 5.88287 11.8544 5.97741 11.7578 6.07656C11.3194 6.5361 10.9396 7.03068 10.6086 7.55335C10.1619 8.25702 9.80429 9.01198 9.51859 9.80335L9.51651 9.80434Z" fill="url(#paint0_linear_29250_8805)"/>
<path d="M35.0831 19.2117L39.8838 17.1632C39.8838 17.1632 38.4711 12.5287 34.6705 13.5617C30.8693 14.5963 28.4997 15.4585 28.4997 15.4585C28.4997 15.4585 34.4427 13.1976 37.2135 15.0941C38.0389 15.6584 38.152 16.8356 37.4539 17.5529L35.0836 19.2102L35.0831 19.2117Z" fill="url(#paint1_linear_29250_8805)"/>
<path d="M21.3394 14.2501L18.9543 9.6074C18.9543 9.6074 23.0016 6.94405 25.266 10.1666C27.5297 13.3907 28.8021 15.5677 28.8021 15.5677C28.8021 15.5677 25.6738 10.0319 22.3306 9.72118C21.335 9.62803 20.4961 10.4616 20.5749 11.4594L21.34 14.2486L21.3394 14.2501Z" fill="url(#paint2_linear_29250_8805)"/>
<path d="M17.0601 7.79236C16.5141 8.84306 15.477 10.7449 15.2528 11.4715C14.8287 12.8481 15.2886 14.4394 16.0131 15.6825L23.7229 29.0938C23.5148 29.1701 23.3082 29.2521 23.1025 29.3362L14.8104 14.9037C12.9374 10.9001 17.0616 7.79292 17.0616 7.79292L17.0601 7.79236Z" fill="url(#paint3_linear_29250_8805)"/>
<path d="M10.6065 7.55435C12.8842 11.8311 14.5864 11.4954 14.5864 11.4954C12.7656 10.5683 12.1795 6.86051 12.0441 5.78836C11.9472 5.88387 11.8523 5.9784 11.7558 6.07755C11.3174 6.53709 10.9375 7.03168 10.6065 7.55435Z" fill="url(#paint4_linear_29250_8805)"/>
<path d="M46.9854 20.6877C42.5011 22.5232 41.4058 21.1776 41.4058 21.1776C43.3989 21.6274 46.2184 19.1491 47.0074 18.4106C47.021 18.546 47.0336 18.6794 47.0445 18.8173C47.0883 19.4509 47.0646 20.0741 46.9854 20.6877Z" fill="url(#paint5_linear_29250_8805)"/>
<path d="M8.94035 16.7942C8.96188 17.023 8.9943 17.2505 9.02936 17.4754L13.3236 18.5124C13.5943 18.5944 13.8257 18.7754 13.9682 19.02L20.4963 30.5846L20.7877 30.1956L14.3215 18.7386C14.0817 18.3162 13.6805 18.0095 13.2125 17.8875L8.93937 16.7921L8.94035 16.7942Z" fill="url(#paint6_linear_29250_8805)"/>
<path d="M21.1414 33.1773L21.1172 33.6628L36.9546 27.3202C37.2205 27.223 37.5148 27.23 37.7748 27.3413L41.9478 29.3873C42.0889 29.2607 42.2285 29.1336 42.3666 29.006C42.3999 28.9762 42.429 28.9485 42.4587 28.9191L38.2574 26.9325C37.8194 26.7274 37.3148 26.7071 36.8605 26.879L21.1394 33.1783L21.1414 33.1773Z" fill="url(#paint7_linear_29250_8805)"/>
<path d="M14.5175 32.1278C14.6246 32.3213 14.7337 32.5191 14.8403 32.7142L39.1111 23.6784C43.1096 21.7944 41.9213 16.7693 41.9213 16.7693C41.6711 17.9286 41.2548 20.0528 40.9626 20.7565C40.4101 22.0851 39.0382 23.0151 37.6862 23.5103L14.519 32.1283L14.5175 32.1278Z" fill="url(#paint8_linear_29250_8805)"/>
<path d="M11.3394 25.4463C11.4286 25.656 11.5234 25.8643 11.6157 26.0751L13.6452 25.2607L16.9887 31.21L17.3168 31.7914L20.3821 37.247L20.4558 37.3745L20.594 37.3235L33.4333 32.4062L34.4199 34.226C34.6354 34.1193 34.8484 34.01 35.0574 33.8975L33.6758 31.3835L20.7615 36.5277L18.0375 31.526L17.7182 30.9391L14.1139 24.3231L11.383 25.3977L11.3388 25.4478L11.3394 25.4463Z" fill="url(#paint9_linear_29250_8805)"/>
</g>
<defs>
<linearGradient id="paint0_linear_29250_8805" x1="19.0717" y1="41.1699" x2="32.0275" y2="5.28271" gradientUnits="userSpaceOnUse">
<stop offset="0.58" stop-color="#BC0221"/>
<stop offset="0.89" stop-color="#ED1C24"/>
</linearGradient>
<linearGradient id="paint1_linear_29250_8805" x1="35.3801" y1="13.4037" x2="32.3031" y2="20.9264" gradientUnits="userSpaceOnUse">
<stop offset="0.16" stop-color="#E6C675"/>
<stop offset="0.91" stop-color="#A76911"/>
</linearGradient>
<linearGradient id="paint2_linear_29250_8805" x1="25.2407" y1="9.25598" x2="22.1895" y2="16.7166" gradientUnits="userSpaceOnUse">
<stop offset="0.16" stop-color="#E6C675"/>
<stop offset="0.91" stop-color="#A76911"/>
</linearGradient>
<linearGradient id="paint3_linear_29250_8805" x1="12.8656" y1="15.9593" x2="33.4986" y2="23.4082" gradientUnits="userSpaceOnUse">
<stop offset="0.16" stop-color="#E6C675"/>
<stop offset="0.71" stop-color="#A76911"/>
</linearGradient>
<linearGradient id="paint4_linear_29250_8805" x1="13.6835" y1="11.843" x2="11.3732" y2="6.81217" gradientUnits="userSpaceOnUse">
<stop offset="0.36" stop-color="#E6C675"/>
<stop offset="1" stop-color="#A76911"/>
</linearGradient>
<linearGradient id="paint5_linear_29250_8805" x1="41.8801" y1="22.0223" x2="46.8711" y2="19.6274" gradientUnits="userSpaceOnUse">
<stop offset="0.36" stop-color="#E6C675"/>
<stop offset="1" stop-color="#A76911"/>
</linearGradient>
<linearGradient id="paint6_linear_29250_8805" x1="18.4213" y1="31.5393" x2="11.1755" y2="15.7674" gradientUnits="userSpaceOnUse">
<stop offset="0.23" stop-color="#E6C675"/>
<stop offset="0.49" stop-color="#A76911"/>
<stop offset="0.69" stop-color="#E6C675"/>
</linearGradient>
<linearGradient id="paint7_linear_29250_8805" x1="37.7382" y1="28.6542" x2="24.4282" y2="34.2584" gradientUnits="userSpaceOnUse">
<stop offset="0.25" stop-color="#E6C675"/>
<stop offset="0.56" stop-color="#A76911"/>
<stop offset="0.9" stop-color="#E6C675"/>
</linearGradient>
<linearGradient id="paint8_linear_29250_8805" x1="38.9151" y1="28.5431" x2="18.4755" y2="21.1641" gradientUnits="userSpaceOnUse">
<stop offset="0.16" stop-color="#E6C675"/>
<stop offset="0.69" stop-color="#A76911"/>
<stop offset="1" stop-color="#E6C675"/>
</linearGradient>
<linearGradient id="paint9_linear_29250_8805" x1="23.8148" y1="27.9836" x2="20.3135" y2="37.5372" gradientUnits="userSpaceOnUse">
<stop offset="0.55" stop-color="#E6C675"/>
<stop offset="1" stop-color="#A76911"/>
</linearGradient>
<clipPath id="clip0_29250_8805">
<rect width="39.2777" height="35.6334" fill="white" transform="matrix(-0.940583 -0.339564 -0.339564 0.940583 50 13.3373)"/>
</clipPath>
</defs>
</svg>
